<svg xmlns="http://www.w3.org/2000/svg" width="24" height="24" viewBox="0 0 24 24" fill="none" stroke="#fff" stroke-width="2" stroke-linecap="round" stroke-linejoin="round" class="lucide lucide-layers h-4 w-4 text-primary" data-lov-id="src/pages/Index.tsx:87:16" data-lov-name="Layers" data-component-path="src/pages/Index.tsx" data-component-line="87" data-component-file="Index.tsx" data-component-name="Layers" data-component-content="%7B%22className%22%3A%22h-4%20w-4%20text-primary%22%7D"><path d="m12.83 2.18a2 2 0 0 0-1.66 0L2.6 6.08a1 1 0 0 0 0 1.83l8.58 3.91a2 2 0 0 0 1.66 0l8.58-3.9a1 1 0 0 0 0-1.83Z"></path><path d="m22 17.65-9.17 4.16a2 2 0 0 1-1.66 0L2 17.65"></path><path d="m22 12.65-9.17 4.16a2 2 0 0 1-1.66 0L2 12.65"></path></svg>